<?xml version="1.0" encoding="UTF-8"?>
<svg version="1.1" viewBox="0 0 2048 2048" width="1280" height="1280" xmlns="http://www.w3.org/2000/svg">
<path transform="translate(167,85)" d="m0 0h1543l24 2 18 4 21 7 16 8 15 9 16 13 8 7 7 8 12 15 9 15 8 16 6 17 5 21 2 15 1 13 28 2 25 5 19 7 21 11 14 10 15 13 11 12 12 17 9 16 6 15 6 19 4 20v35l-5 23-8 24-11 21-12 17-11 12-5 6-6 5-72 72-7 8-12 12h-2v2l-8 7-9 9-2 5-1 716-3 24-6 21-8 20-11 19-13 17-10 11-8 7-13 10-18 11-17 8-19 6-20 4-25 2-1220 1-416 416-10 6-9 3-11 1-11-2-10-5-10-9-7-12-2-5v-1695l7-29 7-19 8-16 7-11 9-12 11-12 10-10 16-12 15-9 19-9 19-6 23-4zm4 85-14 1-16 4-16 8-14 11-11 13-9 17-4 12-2 17v1563l4-2v-2l4-2 16-16v-2l4-2 289-289v-2l3-1 5-6 7-6 5-6 6-5 6-7 8-7 9-6 9-3 1246-1 19-2 15-5 15-8 13-11 9-11 6-10 5-12 3-14 1-8v-626l-4 2-310 310-10 6-19 5-100 20-101 20-6 1h-12l-10-3-10-6-7-8-6-12-2-13 4-24 37-185v-4l-773-1-13-4-9-6-6-7-6-12-2-9v-7l3-12 5-9 7-8 11-6 9-3 841-1 5-3 370-370v-2l4-2 89-89 8-7 12-9 1-2v-32l-3-19-5-14-9-15-12-13-13-9-14-7-15-4-17-1zm1705 171-14 3-18 8-9 7-10 9-55 55-3 2 2 4 107 107 4-1 1-3 4-2 5-6 7-6 5-6 7-6 4-4v-2l4-2v-2l4-2 20-20 10-13 7-14 4-16 1-13-2-16-3-10-8-16-8-10-8-8-14-9-16-6-12-2zm-171 147-348 348-7 8-8 7-22 22-4 15-17 85-7 34v5l13-2 100-20 23-5 6-4 4-5 7-6 5-6 7-6 5-6 7-6 5-6 3-2v-2l4-2v-2l4-2 44-44 5-6 7-6 4-4v-2l4-2 5-6 7-6 5-6 7-6 5-6 7-6 5-6 3-2v-2l4-2 145-145v-2l4-2v-2l4-2v-2l3-1 5-6 7-6 5-6 8-7 7-7 5-6 23-23 3-2-1-4-107-107z" fill="#303C41"/>
<path transform="translate(462,512)" d="m0 0h950l10 2 10 5 10 9 7 14 2 9-1 13-4 10-6 9-9 8-8 4-9 2h-951l-13-4-9-6-7-8-6-12-2-9v-7l3-12 5-9 8-9 11-6z" fill="#303C41"/>
<path transform="translate(462,1024)" d="m0 0h524l10 2 11 6 9 9 6 12 2 8v11l-2 9-5 9-9 10-10 6-12 3h-523l-13-4-9-6-7-8-6-12-2-9v-7l3-12 5-9 8-9 11-6z" fill="#303C41"/>
</svg>
