<?xml version="1.0" encoding="UTF-8"?>
<svg version="1.1" viewBox="0 0 2048 2048" width="1280" height="1280" xmlns="http://www.w3.org/2000/svg">
<path transform="translate(437,382)" d="m0 0 15 1 13 4 11 6 12 11 6 7 7 14 3 10 1 8v9l-2 13-4 11-6 10-11 12-5 6h-2l-2 4h-2l-2 4h-2l-2 4-14 14-7 8-9 10-11 14-11 13-14 19-10 14-10 15-11 17-15 26-10 18-14 28-12 27-11 27-14 41-11 39-8 36-6 35-4 32-2 21-1 17v74l3 38 4 33 6 35 10 43 11 37 12 35 13 32 12 26 16 32 12 21 12 20 20 30 14 19 10 13 13 16 9 11 13 14 7 8 7 7v2l4 2 4 4v2l4 2 7 8 7 7 8 13 5 15 1 14-2 14-5 13-6 10-9 11-13 9-16 6-6 1h-20l-14-4-11-6-10-9-8-7-16-16v-2h-2l-7-8-12-13-9-10-12-14-8-10-13-16-26-36-10-15-13-20-13-22-12-21-17-33-11-23-12-28-12-31-15-44-10-36-10-43-8-45-5-40-3-37-1-19v-66l3-45 5-43 7-41 7-33 9-35 11-37 15-42 17-41 15-31 8-16 10-19 14-24 14-23 23-34 12-16 14-19 12-14 11-14 13-14 7-8 11-12 31-31 10-7 10-5 10-3z"/>
<path transform="translate(1610,386)" d="m0 0 14 1 13 4 11 6 10 8v2l4 2 16 16v2h2l7 8 7 7 7 8 11 12 9 11 13 16 11 14 14 19 12 17 17 26 8 13 13 22 7 12 8 16 8 15 13 28 11 25 13 34 13 38 12 43 9 39 7 38 5 37 4 43 1 19v74l-2 33-4 38-4 28-7 39-9 39-12 42-15 44-12 30-9 21-12 26-10 19-12 23-13 22-11 18-11 17-10 15-28 38-11 13-9 11-11 13-12 13-11 12-34 34-14 9-14 5-6 1h-18l-12-3-14-7-10-9-7-8-6-10-5-15-1-7v-9l3-15 5-12 9-13 35-35 9-11 7-7 9-11 14-17 15-20 8-11 14-21 12-19 10-17 9-16 16-31 14-31 15-39 14-43 12-48 6-31 6-42 3-35 1-21v-54l-3-43-4-34-7-41-8-35-10-35-12-36-14-35-12-27-8-16-12-23-14-24-13-21-17-25-13-18-12-15-9-11-11-13-7-8-11-12-15-16-16-16-7-11-5-11-2-8-1-13 2-13 4-12 7-12 8-9 11-8 10-5 11-3z"/>
<path transform="translate(1301,575)" d="m0 0h11l15 3 16 8 11 9v2l4 2 11 11 7 8 14 15 9 11 13 16 14 19 18 27 12 20 10 18 12 23 13 29 13 35 10 32 9 36 6 33 4 31 2 23 1 22v29l-1 26-4 40-6 36-9 39-9 30-11 31-10 24-8 18-9 17-8 16-17 28-18 27-12 16-11 14-11 13-11 12-7 8-25 25-14 9-15 5-5 1h-19l-12-3-12-6-11-9-7-8-8-14-3-9-1-5v-18l4-16 5-10 7-9 9-10 18-18 1-2h2l2-4 9-10 11-14 14-19 10-15 14-24 12-23 12-27 6-15 10-31 8-32 6-35 3-30 1-24v-17l-2-35-5-37-7-33-9-31-9-25-13-30-11-22-14-24-14-21-10-14-13-16-12-14-3-3v-2h-2l-7-8-17-17-9-13-5-12-2-8v-19l3-12 4-10 9-13h2v-2h2l1-3 10-7 10-5 11-3z"/>
<path transform="translate(736,578)" d="m0 0 13 1 13 4 11 6 10 8 9 11 7 15 3 15v9l-3 16-8 16-11 13-14 14-7 8-9 10-13 17-12 16-13 20-11 18-7 14-8 15-9 21-10 26-9 29-8 34-5 30-3 34v53l4 40 7 38 7 26 11 33 9 22 11 24 10 19 9 15 20 30 10 13 13 16 11 12 7 8 17 17 10 14 5 13 2 13-1 16-4 13-6 11-6 8h-2v2h-2v2l-10 7-13 6-12 3h-18l-12-3-14-7-11-9-22-22-7-8-10-11-9-11-13-16-13-18-18-27-12-20-12-22-8-16-12-26-11-28-12-36-8-31-6-28-6-39-3-34-1-22v-29l1-24 4-39 4-26 6-29 9-35 12-36 11-28 15-33 12-23 13-22 12-19 12-17 14-19 9-11 11-13 7-8 11-12 25-25 15-8 11-3z"/>
<path transform="translate(1016,895)" d="m0 0h17l20 3 16 5 11 5 15 8 14 11 13 13 11 15 10 19 6 18 3 16v31l-4 20-6 17-8 15-10 14-9 10-11 10-15 10-19 9-21 6-14 2h-25l-18-3-15-5-16-8-10-6-10-8-10-9-11-13-9-14-8-17-5-17-3-19v-17l3-20 5-17 7-16 7-11 8-11 5-6h2l2-4h2v-2l14-11 13-8 15-7 17-5z"/>
</svg>
