<?xml version="1.0" encoding="UTF-8"?>
<svg version="1.1" viewBox="0 0 2048 2048" width="1280" height="1280" xmlns="http://www.w3.org/2000/svg">
<path transform="translate(982,662)" d="m0 0h84l65 1 69 2 133 6 33 2 29 4 26 6 20 7 16 8 11 7 11 9 10 10 10 14 9 16 8 21 6 22 5 30 2 21 5 97 2 54v97l-2 48-3 37-5 40-6 36-6 22-8 20-8 14-8 10-12 12-14 10-16 9-15 6-20 6-26 5-33 4-25 2-134 6-64 2-64 1h-86l-63-1-65-2-134-6-44-4-30-5-21-5-17-6-16-8-14-9-10-8-11-11-9-13-8-16-6-16-6-24-5-31-5-41-3-37-2-49v-92l2-55 5-98 4-36 5-24 6-20 9-21 10-16 9-11 10-10 14-10 14-8 21-8 18-5 20-4 24-3 32-2 133-6 69-2z" fill="#f00"/>
<path transform="translate(921,872)" d="m0 0 5 2 28 16 27 16 26 15 72 42 26 15 22 13 26 15 27 16 2 2-13 8-26 15-27 16-28 16-22 13-26 15-27 16-26 15-65 38h-1z" fill="#FEFEFE"/>
</svg>
