<?xml version="1.0" encoding="UTF-8"?>
<svg version="1.1" viewBox="0 0 2048 2048" width="1280" height="1280" xmlns="http://www.w3.org/2000/svg">
<path transform="translate(809)" d="m0 0h430l8 3 17 7 11 7 13 11 10 13 8 16 4 13 5 30 29 204 2 10 38 19 19 10 16 9 57 37 3 1 29-12 137-55 50-20 16-5 12-2h20l16 3 15 6 12 7 10 8 8 8 11 16 45 78 16 28 10 17 45 78 14 24 16 28 14 24 8 14 14 24 12 21 7 15 4 15 2 16-1 14-3 15-7 17-9 13-9 10-17 14-13 10-18 14-10 8-13 10-14 11-18 14-15 12-17 13-15 12-13 10-14 11-13 10-3 3 3 47v59l-2 28-1 20v2l5 2 16 13 13 10 14 11 18 14 15 12 13 10 36 28 15 12 13 10 15 12 13 10 14 13 9 13 7 14 4 14 2 15-1 16-3 15-6 15-9 17-14 24-12 21-13 22-90 156-14 24-30 52-14 24-7 11-8 10-9 9-14 9-16 7-12 3-7 1h-20l-12-2-18-6-34-14-70-28-97-39-13-5-5 2-24 15-15 10-22 14-51 27-16 8-4 26-11 76-17 118-4 24-4 13-7 14-8 11-12 12-14 9-16 7-12 4h-431v-2l-17-6-13-7-13-11-10-11-9-15-5-15-4-20-30-209-3-18-45-23-23-12-46-30-17-11-4 1-31 12-87 35-90 36-21 7-8 2-10 1h-11l-15-2-15-5-14-7-9-7-9-8-10-13-13-22-60-104-14-24-16-28-14-24-60-104-14-24-10-18-7-19-2-11-1-15 3-20 4-12 7-14 10-13 7-7 11-9 42-33 18-14 28-22 18-14 28-22 18-14 14-11 13-10 1-1-2-42-1-16v-51l3-39v-6l-9-8-13-10-28-22-13-10-28-22-18-14-28-22-18-14-28-22-10-9-9-9-9-14-6-13-4-16-1-9v-9l2-15 5-17 10-19 15-26 14-24 16-28 28-48 16-28 30-52 14-24 16-28 28-48 16-28 10-13 11-11 14-9 13-6 16-4 18-1 16 2 24 8 37 15 155 62 19 8 4-2 18-11 23-15 17-11 16-9 33-17 22-11 2-12 19-131 13-91 5-21 8-16 7-10 5-6 8-7 11-8 17-8 11-3zm19 86-16 96-15 93-8 49-4 24-4 13-4 8-5 5v2l-4 2-17 9-27 12-20 10-23 13-17 10-23 15-19 13-11 8-14 9-13 5h-15l-15-5-147-59-32-13-40-16-17-7h-2l-9 16-8 13-13 22-42 71-15 25-17 29-19 32-13 22-15 25-17 29-19 32-13 22-2 5 17 14 16 13 17 14 32 26 11 9 32 26 17 14 11 9 16 13 11 9 16 13 11 9 8 8 6 12 2 7v15l-5 54-1 38 1 29 4 46 1 9v14l-3 10-5 9-9 10-17 13-28 22-13 10-15 12-26 20-10 8-13 10-16 13-16 12-15 12-17 13-15 12-4 3v2h-2l1 7 12 22 10 17 12 21 15 26 11 19 14 24 16 28 14 24 8 14 11 19 14 24 16 28 10 17 15 26 14 24 3 5 5-1 29-11 45-17 90-34 77-29 16-4h13l12 4 15 10 28 20 22 14 20 12 26 14 17 9 27 12 14 7 10 9 6 9 4 14 30 209 7 48 11 1 163 2 59 1 124 1h40l2-6 14-84 19-118 9-54 3-12 7-12 8-7 17-9 27-12 33-17 25-15 19-12 19-13 18-13 13-8 10-4h18l20 7 29 12 185 74 17 7 6-9 9-15 26-44 9-15 13-22 15-25 10-17 45-76 17-29 8-13 10-17 16-27 20-34-1-7-14-11-16-13-13-10-18-14-28-22-18-14-28-22-18-14-28-22-18-14-12-10-6-8-5-10-1-4v-16l4-41 1-20v-52l-2-33-3-30v-16l4-11 6-9 8-8 28-22 13-10 18-14 15-12 17-13 15-12 13-10 14-11 36-28 14-11 15-12 7-5 1-6-7-14-14-24-45-78-10-17-16-28-15-26-14-24-30-52-14-24-15-26-13-23-4-4-10 3-141 53-56 21-42 16-11 3h-14l-10-3-16-10-13-10-23-16-36-22-26-14-16-8-37-17-10-7-7-8-5-11-3-14-28-196-7-50-2-6-162-2-65-1-105-1z"/>
<path transform="translate(1e3 597)" d="m0 0h42l34 3 36 6 34 9 20 7 24 9 17 8 19 10 14 8 22 14 19 14 14 11 15 14 10 9 13 13 7 8 10 11 15 20 11 15 11 18 10 17 8 16 12 26 11 30 8 29 6 29 4 29 2 27v33l-2 27-3 24-4 22-8 32-8 24-10 25-14 29-10 18-12 19-9 13-16 21-7 8-11 12-1 2h-2l-2 4-14 14-8 7-12 11-13 10-16 12-17 11-15 9-14 8-29 14-26 10-24 8-37 9-33 5-21 2-20 1h-21l-32-2-40-6-40-10-34-12-16-7-29-14-30-18-17-12-13-10-10-8-20-18-9-8v-2h-2l-7-8-15-16-11-14-15-20-14-22-12-21-11-22-8-19-8-21-8-27-6-25-6-39-2-27v-38l2-28 6-38 9-36 9-27 11-27 17-34 20-32 16-21 9-12 15-16 7-8 15-15 8-7 11-10 16-12 19-14 28-17 23-12 24-11 36-13 39-10 39-6zm5 86-24 2-26 4-25 6-19 6-24 9-29 14-15 9-18 12-17 13-14 12-16 15-15 16-13 16-10 14-12 19-9 16-12 25-6 15-8 25-6 25-3 17-3 24-1 21v12l2 31 5 32 7 28 9 26 9 21 11 22 14 23 14 19 9 11 11 12 9 10 7 7 8 7 14 12 19 14 19 12 16 9 27 13 34 12 29 7 32 5 38 2 34-2 37-6 30-8 32-12 25-12 17-10 17-11 16-12 10-8 13-12 8-7 7-7 7-8 9-10 14-19 8-11 14-24 12-24 11-29 6-20 6-25 4-27 2-34-2-39-5-33-7-28-9-26-9-21-8-16-10-18-14-21-13-17-9-10-7-8-20-20-11-9-15-12-21-14-15-9-21-11-21-9-23-8-26-7-21-4-24-3-17-1z"/>
</svg>
