<?xml version="1.0" encoding="UTF-8"?>
<svg version="1.1" viewBox="0 0 2048 2048" width="1280" height="1280" xmlns="http://www.w3.org/2000/svg">
<path transform="translate(901,159)" d="m0 0h14l11 4 16 10 20 12 30 20 17 12 16 12 13 10 11 9 13 11 11 9 15 14 8 7 40 40 7 8 10 11 9 11 12 14 13 17 10 13 13 18 8 12 15 23 11 18 10 17 14 26 10 19 13 28 13 31 11 29 12 36 5 16v3h3l1-9 6-25 3-24 1-27-2-25-4-23-7-25-12-30-1-9 4-12 6-9 8-6 6-3 5-1h10l11 4 9 7 12 13 3 3v2h2l7 8 12 13 9 11 9 10 11 14 13 16 14 19 11 15 15 22 13 20 14 23 11 19 12 22 14 27 15 31 16 38 14 37 12 36 10 34 12 48 8 40 7 44 5 46 3 46v86l-5 54-7 47-9 42-11 41-12 36-9 24-10 25-7 15-11 23-10 19-7 12-6 11-14 23-18 27-12 17-14 18-11 14-13 15-7 8-9 10-14 15-23 23-8 7-13 12-13 11-20 16-16 12-18 13-15 10-17 11-22 13-16 9-23 12-16 8-24 11-44 18-4 1h-18l-8-4-6-5-7-11-2-10 1-10 4-10 11-14 13-18 21-32 15-26 17-32 14-30 11-27 10-28 5-15 10-35 7-30 6-33 4-29 3-30 1-19v-65l-2-30-4-35-6-36-8-36-10-36-15-44-10-24-9-20-12-25-14-26-13-22-16-25-13-18-12-16-11-14-12-14-4-4 3 21 3 33 1 44-2 35-3 30-6 37-9 38-8 27-11 31-10 24-8 18-10 19-12 22-14 22-18 26-12 16-8 6-10 4h-12l-11-4-9-8-5-8-2-8v-11l1-13v-52l-3-30-5-29-8-31-11-33-2-4v-4h-2l-1 15-8 44-10 42-13 43-11 31-14 35-10 24-8 21-8 26-6 26-4 23-3 26-1 39 2 32 4 29 6 28 8 28 11 30 15 32 14 24 11 17 8 11 12 16 10 11 7 8 8 9 4 8 1 6v8l-2 8-6 10-9 7-8 3h-17l-26-7-41-13-21-8-26-11-32-15-39-22-23-15-19-13-17-13-16-13-11-9-13-12-8-7-35-35-7-8-12-14-12-15-10-13-13-18-15-23-9-15-11-19-14-27-8-18-5-11-10-26-12-36-9-34-6-29-5-31-4-37-2-37v-27l2-36 3-30 6-39 8-36 6-23 10-31 11-30 13-29 11-23 8-16 13-24 8-16 15-32 13-32 13-36 10-32 8-29 9-40 7-39 6-48 6-12 4-5 10-6 7-2h10l10 3 6 4 8 8 24 34 10 15 8 14 12 22 13 27 8 20 3 8 4-4 16-26 13-22 14-26 10-19 16-32 9-20 13-31 10-26 13-36 13-42 10-37 8-35 8-41 6-38 4-34 3-36 2-41 1-37 6-11 5-6 8-5zm39 90-1 2-2 31-4 38-6 44-10 54-10 43-11 41-11 36-14 40-14 36-12 28-15 33-8 16-17 33-13 23-10 17-17 28-27 40-10 14-9 13-9 10-10 5-4 1h-11l-11-4-10-9-4-8-8-33-6-21-10-27-11-25-8-15-2 4-12 51-12 41-14 41-12 30-11 26-17 36-9 17-9 19-9 16-13 27-11 27-12 36-7 25-8 36-4 24-3 23-2 29-1 35 2 42 4 36 6 34 7 30 11 36 11 30 13 29 15 30 9 15 11 18 15 22 9 12 10 13 9 11 10 11 7 8 9 10 19 19 8 7 13 12 14 11 12 10 17 12 16 11 19 12 14 8 23 13 18 8 12 6h2l-1-4-12-22-14-31-11-29-9-29-7-30-6-37-3-37v-40l3-34 4-27 7-33 9-31 11-30 10-24 9-21 11-29 12-38 8-30 8-36 5-31 4-31 3-38 1-40 2-12 5-9 8-7 10-4h14l9 3 8 6 8 11 16 24 12 20 12 22 11 23 11 28 9 27 9 36 4 22 1 9 2 1 11-24 11-29 11-35 7-29 6-35 3-28 1-17v-50l-3-34-5-34-7-31-8-28-9-25-4-10-1-5v-10l4-11 4-5v-2h2v-2l5-2 8-4 4-1h10l11 4 9 7 13 12 11 9 9 9 8 7 27 27 1 2h2l2 4 7 7 1 2h2l2 4 9 10 9 11 12 15 12 16 13 18 14 21 15 24 14 25 10 19 13 26 13 30 13 34 13 40 10 38 7 32 6 35 5 42 2 30 1 26v24l-2 46-4 39-6 39-7 34-9 36-10 33-11 31-14 34-11 24-8 17-10 19-3 5v2l6-2 22-13 22-14 17-12 19-14 14-11 14-12 11-9 16-15 3-2v-2l4-2 18-18 7-8 7-7v-2h2l7-8 9-11 11-13 21-28 11-16 11-17 12-20 12-21 12-23 14-30 11-27 8-21 11-35 9-34 8-38 5-32 4-37 2-38v-60l-2-36-3-34-6-45-8-43-10-42-8-29-12-38-13-36-12-29-13-29-14-29-15-28-13-23-16-26-18-27-12-17-9-12-2-1-3 35-4 25-7 28-9 26-11 24-9 17-14 22-10 14-8 7-8 3h-19l-11-6-7-9-3-7-8-41-9-35-8-28-14-41-12-30-11-25-13-27-10-19-10-18-12-20-10-16-12-18-12-17-12-16-11-14-11-13-9-11-13-14-7-8-12-12-5-6-8-7-17-17-8-7-10-9-11-9-13-11-16-12-19-14-23-16z"/>
</svg>
